<svg xmlns="http://www.w3.org/2000/svg" version="1.1" xmlns:xlink="http://www.w3.org/1999/xlink" xmlns:svgjs="http://svgjs.dev/svgjs" width="2000" height="2250" viewBox="0 0 2000 2250"><g transform="matrix(1,0,0,1,0.00014687500004129106,0)"><svg viewBox="0 0 320 360" data-background-color="#edeae0" preserveAspectRatio="xMidYMid meet" height="2250" width="2000" xmlns="http://www.w3.org/2000/svg" xmlns:xlink="http://www.w3.org/1999/xlink"><g id="tight-bounds" transform="matrix(1,0,0,1,0.000023499999997511622,0)"><svg viewBox="0 0 320 360" height="360" width="320"><g><svg></svg></g><g><svg viewBox="0 0 320 360" height="360" width="320"><g><path transform="translate(-74.99272,-51.79039) scale(4.65793,4.65793)" d="M20.6 59.9l0.8 1-0.4-1.3c-0.1-0.6-0.8 0.1-0.4 0.3M21.5 59.3c0.3 0.5 0.6 1 0.6 1.5 0 0.7 0.6 1 1.1 1.2-0.7-0.8-1.1-3-1.7-2.7M59.9 16.9c1.7 0 3.3-0.2 5.1 0.2 4.4 1.1 8.1 3.3 10.6 6.4l7 11.2c0.3 2.8 0.9 5.9 0.8 9.3 0.7 0 0.6-1 1.4-1.2-0.8 2-1.2 4.5-1.4 7.4-0.5-1.6 0-4 0.1-5.3-0.7 1.1-1.1 0.3-1.1-0.2 0.1-0.8-0.3-0.7-0.6-1-1.1-1-1.8-2.1-2.6-3.8 0.5-1.3 0.6-3.2-1-4.2-0.5-0.3-1.1-0.8-1.4-1.6-0.4-1.1-1.1-2.4-0.9-4.1 0.1-0.5-1.5 1.1-2.4 0.4-3.9-2.7-7.8-5.8-12.5-8.4-2.5 0-4.3-0.9-5.2-2-0.8-1-0.2-2.3 1-2.4 0.7 0 1.5-0.2 2.1 0.2 0.1-0.4 0.5-0.9 1-0.9M50 14.6l0.2 0.1c1 0.2 1.5 1.6 2.6 1.1 0 0.7 0.1 1.4-0.1 1.9-0.3 0.8-1.2 0.8-1.9 0.8-6.7-0.4-10.6 2.4-14.7 4.8-1.1 0.7-2.3 1.2-3.2 2.1-4.3 4-9 7.7-10.1 15.1l-0.9 8.2c-0.1 0.9-1.1 1.8-0.9 2.9l0.7 4.9c-0.7-0.7-1.1 0.2-0.9 0.6 0.1 0.3 0.5 1.3 1.1 0.4 0.8 1.5 1.6 4.4 2.7 5.7 3.4 4 7.8 7.6 11.4 11.2 0.9-0.2 1.6-0.2 1.8-0.8 0.3 0.6-0.3 1.2-0.8 1.3 1.6 1 3.4 1.9 5.8 2.1 3.1 0.2 6 0.7 8.7 1.4 1.4-0.4 2.8-0.6 4.3-0.7 0.5 0 0.8-0.8 1.4-1l0.1-1c0.6 0.9 0.5-0.3 0.1-0.9 0.7 0.6 0.9 1.1 1.2 1.5 0-0.3 0.8-1.4 0.8-0.1l0.2-1.3c0.3-0.2 0.4 1.1 0.7 0.2 0.3-0.9 0.9-0.2 1.5-0.5-0.2 0.4-0.1 1.2 0.6 0.7l0.8-0.7c0.5 1.2 1.3 0.7 1.7 0.5 4.4-2.8 8.8-6.1 13-9.4l-0.1 1.3 0.5-1.6c0.5 0.5 0.9 0.1 1.1-0.2 0.6-1 1.4-2 2.7-2.9-1.6 4.3-3.5 7.7-5.9 10.5l-1 1.2c0 0.7-0.2 1.6-1 1.7-0.4 0.1-1.2-0.2-1.8 0.4-0.3 0.4 0.7 1.2-0.1 0.6-0.7-0.5-1.4 0-2.2 0.2-0.6 0.2 0.4 0.8 0.6 1.2 0.2 0.4 0.4 0.8 0.3 1.3l-1.1-1.2c-1.3 0.7-2.1 2-3.2 3-0.5 0.4-0.3 1.1-0.3 1.7-0.7 0-1.5-0.2-1.9 0.2-0.3 0.4-0.2 1-0.2 1.6-1-0.1-1.1-1.6-2-1.3-0.9 0.2-1.9 0.3-2.7 0.8 0.6 1.2-1 0.5-0.8 0.7-1.5-0.9-2.8-1.6-4.4-1-3.4-1.1-7.6-0.6-10.7-0.2 0-0.5 0.1-1-0.1-1.1-0.2 0.5-0.8 0.3-0.7 0.3-1.9-1.3-3.8-2.1-5.8-3.2-1.8 0.2-3.5-0.7-4-1.2-1.4-1.3-3-0.6-4.3-0.9-2.8-0.7-3.8-3.6-4.1-5.6-0.2-1-1-1.4-1.3-1.3-1.3-4.2-3.3-8-4.9-11.9-0.4-1-0.3-2-0.3-3.1 0.5 0.2 1 0.1 0.9-0.6-0.5-3.3-1.7-5.8-3-8.2 0.7-3.4 0.8-7.4 2.4-10.4 1.4-2.7 4-4.1 5.8-6.4 0.6-0.8 0.6-1.9 1.2-2.6 2-2 4-4.1 6.2-5.9 1-0.8 2.2 0 3.7-0.3 0.5-1.8 2.5-3.4 4.4-2.9 0.8 0.2 2.4-1.9 2.9-2.1 0.8-0.3 0.4 0.8 0.4 1.5 1.9-1.5 4.5-2.3 6.9-3.2" fill="#ffffff" fill-rule="nonzero" stroke="none" stroke-width="1" stroke-linecap="butt" stroke-linejoin="miter" stroke-miterlimit="10" stroke-dasharray="" stroke-dashoffset="0" font-family="none" font-weight="none" font-size="none" text-anchor="none" style="mix-blend-mode: normal" data-fill-palette-color="tertiary"></path></g><g transform="matrix(1,0,0,1,103.00780673270012,161.12205248255862)"><svg viewBox="0 0 113.98438653459976 37.75589503488275" height="37.75589503488275" width="113.98438653459976"><g><svg viewBox="0 0 113.98438653459976 37.75589503488275" height="37.75589503488275" width="113.98438653459976"><g><svg viewBox="0 0 113.98438653459976 37.75589503488275" height="37.75589503488275" width="113.98438653459976"><g id="textblocktransform"><svg viewBox="0 0 113.98438653459976 37.75589503488275" height="37.75589503488275" width="113.98438653459976" id="textblock"><g><svg viewBox="0 0 113.98438653459976 37.75589503488275" height="37.75589503488275" width="113.98438653459976"><g><svg><g></g><g></g></svg></g><g><svg><g><svg></svg></g><g></g></svg></g><g id="text-0"><svg viewBox="0 0 113.98438653459976 37.75589503488275" height="37.75589503488275" width="113.98438653459976"><g transform="matrix(1,0,0,1,0,0)"><svg width="32.03635894839288" viewBox="0.5 -17.3 22.231171875 26.200000000000003" height="37.75589503488275" data-palette-color="#bbb3db"><path d="M5 8.9L5 8.9Q4.65 8.9 4.65 8.55L4.65 8.55Q4.65 8.25 4.9 7.68 5.15 7.1 5.5 6.35L5.5 6.35Q6.65 4.1 7.78 2.15 8.9 0.2 10.05-1.6L10.05-1.6Q7.75-2.95 5.98-4.7 4.2-6.45 2.98-8.1 1.75-9.75 1.13-10.9 0.5-12.05 0.5-12.15L0.5-12.15Q0.5-12.4 0.98-12.55 1.45-12.7 2.08-12.75 2.7-12.8 3.18-12.8 3.65-12.8 3.65-12.8L3.65-12.8Q4.5-9 6.58-6.43 8.65-3.85 10.75-2.65L10.75-2.65Q12.85-5.95 14.28-9.38 15.7-12.8 17.1-17.15L17.1-17.15Q17.1-17.3 17.5-17.3L17.5-17.3Q18-17.3 18.93-17.05 19.85-16.8 20.78-16.38 21.7-15.95 22.28-15.43 22.85-14.9 22.7-14.4L22.7-14.4Q21.8-11.8 20.15-8.83 18.5-5.85 16.48-2.98 14.45-0.1 12.4 2.35 10.35 4.8 8.68 6.45 7 8.1 6.05 8.55L6.05 8.55Q5.35 8.9 5 8.9Z" opacity="1" transform="matrix(1,0,0,1,0,0)" fill="#ffffff" class="wordmark-text-0" data-fill-palette-color="primary"></path></svg></g><g><svg xmlns="http://www.w3.org/2000/svg" xmlns:xlink="http://www.w3.org/1999/xlink" version="1.1" x="42.04475894839288" y="0" viewBox="5 26.382 90.001 47.235" enable-background="new 0 0 100 100" xml:space="preserve" height="37.75589503488275" width="71.93962758620688" class="icon-dxe-0" data-fill-palette-color="accent" id="dxe-0"><g fill="#63855a" data-fill-palette-color="accent"><path fill="none" d="M49.999 28.675A0.682 0.682 0 1 1 49.999 27.314 0.681 0.681 0 0 0 49.999 28.675"></path><path fill="none" d="M54.303 70.682H45.696A0.68 0.68 0 0 0 45.016 71.362V71.363A0.68 0.68 0 0 1 45.696 70.684H54.303C54.678 70.684 54.98 70.989 54.983 71.363V71.362A0.68 0.68 0 0 0 54.303 70.682"></path><path d="M86.627 69.107C86.736 68.881 86.803 68.629 86.803 68.361V28.107C86.803 27.154 86.032 26.382 85.078 26.382H14.919C13.966 26.382 13.194 27.153 13.194 28.107V68.361C13.194 68.632 13.259 68.882 13.37 69.107H5V71.892C5 72.841 5.773 73.617 6.727 73.617H93.273C94.226 73.617 95.001 72.844 95.001 71.892V69.107zM49.999 27.314A0.68 0.68 0 1 1 49.999 28.672 0.68 0.68 0 0 1 50 27.314M16.143 29.709H83.855V66.277H16.143zM54.982 71.363A0.68 0.68 0 0 1 54.302 72.046H45.695A0.68 0.68 0 0 1 45.015 71.363V71.361A0.68 0.68 0 0 1 45.695 70.681H54.302A0.68 0.68 0 0 1 54.982 71.361z" fill="#ffffff" data-fill-palette-color="accent"></path><polygon points="31.736,50.861 44.194,56.648 44.194,53.898 34.772,49.771 34.772,49.719 44.194,45.592 44.194,42.84    31.736,48.628  " fill="#ffffff" data-fill-palette-color="accent"></polygon><polygon points="46.119,57.688 48.74,57.688 54.295,38.87 51.673,38.87  " fill="#ffffff" data-fill-palette-color="accent"></polygon><polygon points="55.801,45.592 65.432,49.719 65.432,49.771 55.801,53.898 55.801,56.648 68.26,50.939 68.26,48.551 55.801,42.84     " fill="#ffffff" data-fill-palette-color="accent"></polygon></g></svg></g></svg></g></svg></g></svg></g></svg></g></svg></g></svg></g></svg></g><defs></defs></svg><rect width="320" height="360" fill="none" stroke="none" visibility="hidden"></rect></g></svg></g></svg>