<svg xmlns="http://www.w3.org/2000/svg" version="1.1" xmlns:xlink="http://www.w3.org/1999/xlink" xmlns:svgjs="http://svgjs.dev/svgjs" width="2000" height="4573" viewBox="0 0 2000 4573"><g transform="matrix(1,0,0,1,1.689478248820933,1.3984709480123456)"><svg viewBox="0 0 143 327" data-background-color="#191552" preserveAspectRatio="xMidYMid meet" height="4573" width="2000" xmlns="http://www.w3.org/2000/svg" xmlns:xlink="http://www.w3.org/1999/xlink"><g id="tight-bounds" transform="matrix(1,0,0,1,-0.12079769479069569,-0.10000000000002274)"><svg viewBox="0 0 143.2415953895814 327.2" height="327.2" width="143.2415953895814"><g><svg viewBox="0 0 289.8715492957747 662.1398670659881" height="327.2" width="143.2415953895814"><g transform="matrix(1,0,0,1,0,334.93986706598815)"><svg viewBox="0 0 289.8715492957747 327.2" height="327.2" width="289.8715492957747"><g id="textblocktransform"><svg viewBox="0 0 289.8715492957747 327.2" height="327.2" width="289.8715492957747" id="textblock"><g><svg viewBox="0 0 289.8715492957747 327.2" height="327.2" width="289.8715492957747"><g transform="matrix(1,0,0,1,0,0)"><svg width="289.8715492957747" viewBox="0.65 -35.5 31.450000000000003 35.5" height="327.2" data-palette-color="url(#b16c6892-42da-4600-a478-7fc93b89a417)"></svg></g></svg></g></svg></g></svg></g><g transform="matrix(1,0,0,1,55.36546591549296,0)"><svg viewBox="0 0 179.14061746478876 308.76386706598817" height="308.76386706598817" width="179.14061746478876"><g><svg xmlns="http://www.w3.org/2000/svg" xmlns:xlink="http://www.w3.org/1999/xlink" version="1.1" x="0" y="0" viewBox="21.679106830508616 1 56.85827385947762 98" enable-background="new 0 0 100 100" xml:space="preserve" height="308.76386706598817" width="179.14061746478876" class="icon-icon-0" data-fill-palette-color="accent" id="icon-0"></svg></g></svg></g><g></g></svg></g><defs></defs><mask id="35d749d1-89e1-44b7-af69-12d2af352494"><g id="SvgjsG1711"><svg viewBox="0 0 143.2415953895814 327.2" height="327.2" width="143.2415953895814"><g><svg viewBox="0 0 289.8715492957747 662.1398670659881" height="327.2" width="143.2415953895814"><g transform="matrix(1,0,0,1,0,334.93986706598815)"><svg viewBox="0 0 289.8715492957747 327.2" height="327.2" width="289.8715492957747"><g id="SvgjsG1710"><svg viewBox="0 0 289.8715492957747 327.2" height="327.2" width="289.8715492957747" id="SvgjsSvg1709"><g><svg viewBox="0 0 289.8715492957747 327.2" height="327.2" width="289.8715492957747"><g transform="matrix(1,0,0,1,0,0)"><svg width="289.8715492957747" viewBox="0.65 -35.5 31.450000000000003 35.5" height="327.2" data-palette-color="url(#b16c6892-42da-4600-a478-7fc93b89a417)"><path d="M0.65-35.5L5.6-35.5 16.35-17 27.2-35.5 32.1-35.5 18.6-12.95 18.6 0 14.1 0 14.1-13.05 0.65-35.5Z" opacity="1" transform="matrix(1,0,0,1,0,0)" fill="white" class="wordmark-text-0" id="SvgjsPath1708"></path></svg></g></svg></g></svg></g></svg></g><g transform="matrix(1,0,0,1,55.36546591549296,0)"><svg viewBox="0 0 179.14061746478876 308.76386706598817" height="308.76386706598817" width="179.14061746478876"><g><svg xmlns="http://www.w3.org/2000/svg" xmlns:xlink="http://www.w3.org/1999/xlink" version="1.1" x="0" y="0" viewBox="21.679106830508616 1 56.85827385947762 98" enable-background="new 0 0 100 100" xml:space="preserve" height="308.76386706598817" width="179.14061746478876" class="icon-icon-0" data-fill-palette-color="accent" id="SvgjsSvg1707"><g fill="black"><path fill-rule="evenodd" clip-rule="evenodd" d="M30.545 28.822C29.38 36.039 30.875 43.672 37.045 47.863 30.758 19.81 45.756 8.664 59.646 1 43.466 24.046 76.542 24.644 78.423 51.13 80.028 73.71 64.507 91.317 46.639 99 46.845 76.175 24.089 73.067 21.801 54.397 20.905 47.094 25.062 33.766 30.545 28.822" fill="black"></path></g></svg></g></svg></g><g></g></svg></g><defs><mask></mask></defs></svg><rect width="143.2415953895814" height="327.2" fill="black" stroke="none" visibility="hidden"></rect></g></mask><linearGradient x1="0" x2="1" y1="0.578" y2="0.595" id="b16c6892-42da-4600-a478-7fc93b89a417"><stop stop-color="#6ee2f5" offset="0"></stop><stop stop-color="#6454f0" offset="1"></stop></linearGradient><rect width="143.2415953895814" height="327.2" fill="url(#b16c6892-42da-4600-a478-7fc93b89a417)" mask="url(#35d749d1-89e1-44b7-af69-12d2af352494)" data-fill-palette-color="primary"></rect><mask id="81b0b119-a84e-433c-bc35-33121d3a5780"><g id="SvgjsG1720"><svg viewBox="0 0 143.2415953895814 327.2" height="327.2" width="143.2415953895814"><g><svg viewBox="0 0 289.8715492957747 662.1398670659881" height="327.2" width="143.2415953895814"><g transform="matrix(1,0,0,1,0,334.93986706598815)"><svg viewBox="0 0 289.8715492957747 327.2" height="327.2" width="289.8715492957747"><g id="SvgjsG1719"><svg viewBox="0 0 289.8715492957747 327.2" height="327.2" width="289.8715492957747" id="SvgjsSvg1718"><g><svg viewBox="0 0 289.8715492957747 327.2" height="327.2" width="289.8715492957747"><g transform="matrix(1,0,0,1,0,0)"><svg width="289.8715492957747" viewBox="0.65 -35.5 31.450000000000003 35.5" height="327.2" data-palette-color="url(#b16c6892-42da-4600-a478-7fc93b89a417)"></svg></g></svg></g></svg></g></svg></g><g transform="matrix(1,0,0,1,55.36546591549296,0)"><svg viewBox="0 0 179.14061746478876 308.76386706598817" height="308.76386706598817" width="179.14061746478876"><g><svg xmlns="http://www.w3.org/2000/svg" xmlns:xlink="http://www.w3.org/1999/xlink" version="1.1" x="0" y="0" viewBox="21.679106830508616 1 56.85827385947762 98" enable-background="new 0 0 100 100" xml:space="preserve" height="308.76386706598817" width="179.14061746478876" class="icon-icon-0" data-fill-palette-color="accent" id="SvgjsSvg1717"><g fill="white"><path fill-rule="evenodd" clip-rule="evenodd" d="M30.545 28.822C29.38 36.039 30.875 43.672 37.045 47.863 30.758 19.81 45.756 8.664 59.646 1 43.466 24.046 76.542 24.644 78.423 51.13 80.028 73.71 64.507 91.317 46.639 99 46.845 76.175 24.089 73.067 21.801 54.397 20.905 47.094 25.062 33.766 30.545 28.822" fill="white"></path></g></svg></g></svg></g><g></g></svg></g><defs><mask></mask></defs><mask><g id="SvgjsG1716"><svg viewBox="0 0 143.2415953895814 327.2" height="327.2" width="143.2415953895814"><g><svg viewBox="0 0 289.8715492957747 662.1398670659881" height="327.2" width="143.2415953895814"><g transform="matrix(1,0,0,1,0,334.93986706598815)"><svg viewBox="0 0 289.8715492957747 327.2" height="327.2" width="289.8715492957747"><g id="SvgjsG1715"><svg viewBox="0 0 289.8715492957747 327.2" height="327.2" width="289.8715492957747" id="SvgjsSvg1714"><g><svg viewBox="0 0 289.8715492957747 327.2" height="327.2" width="289.8715492957747"><g transform="matrix(1,0,0,1,0,0)"><svg width="289.8715492957747" viewBox="0.65 -35.5 31.450000000000003 35.5" height="327.2" data-palette-color="url(#b16c6892-42da-4600-a478-7fc93b89a417)"><path d="M0.65-35.5L5.6-35.5 16.35-17 27.2-35.5 32.1-35.5 18.6-12.95 18.6 0 14.1 0 14.1-13.05 0.65-35.5Z" opacity="1" transform="matrix(1,0,0,1,0,0)" fill="black" class="wordmark-text-0" id="SvgjsPath1713"></path></svg></g></svg></g></svg></g></svg></g><g transform="matrix(1,0,0,1,55.36546591549296,0)"><svg viewBox="0 0 179.14061746478876 308.76386706598817" height="308.76386706598817" width="179.14061746478876"><g><svg xmlns="http://www.w3.org/2000/svg" xmlns:xlink="http://www.w3.org/1999/xlink" version="1.1" x="0" y="0" viewBox="21.679106830508616 1 56.85827385947762 98" enable-background="new 0 0 100 100" xml:space="preserve" height="308.76386706598817" width="179.14061746478876" class="icon-icon-0" data-fill-palette-color="accent" id="SvgjsSvg1712"><g fill="black"><path fill-rule="evenodd" clip-rule="evenodd" d="M30.545 28.822C29.38 36.039 30.875 43.672 37.045 47.863 30.758 19.81 45.756 8.664 59.646 1 43.466 24.046 76.542 24.644 78.423 51.13 80.028 73.71 64.507 91.317 46.639 99 46.845 76.175 24.089 73.067 21.801 54.397 20.905 47.094 25.062 33.766 30.545 28.822" fill="black"></path></g></svg></g></svg></g><g></g></svg></g><defs><mask></mask></defs></svg><rect width="143.2415953895814" height="327.2" fill="black" stroke="none" visibility="hidden"></rect></g></mask></svg><rect width="143.2415953895814" height="327.2" fill="black" stroke="none" visibility="hidden"></rect></g></mask><linearGradient x1="0" x2="1" y1="0.578" y2="0.595" id="fd4ae3b1-f064-481c-bd55-d4df938805ff"><stop stop-color="#6ee2f5" offset="0"></stop><stop stop-color="#6454f0" offset="1"></stop></linearGradient><rect width="143.2415953895814" height="327.2" fill="url(#fd4ae3b1-f064-481c-bd55-d4df938805ff)" mask="url(#81b0b119-a84e-433c-bc35-33121d3a5780)" data-fill-palette-color="accent"></rect></svg><rect width="143.2415953895814" height="327.2" fill="none" stroke="none" visibility="hidden"></rect></g></svg></g></svg>